HIERARCHY
ROOT Hips
{
	OFFSET 0.00000 0.00000 0.00000
	CHANNELS 6 Xposition Yposition Zposition Zrotation Yrotation Xrotation 
	JOINT LHipJoint
	{
		OFFSET 0 0 0
		CHANNELS 3 Zrotation Yrotation Xrotation
		JOINT LeftUpLeg
		{
			OFFSET 1.86795 -1.59681 0.65681
			CHANNELS 3 Zrotation Yrotation Xrotation
			JOINT LeftLeg
			{
				OFFSET 2.30491 -6.33268 0.00000
				CHANNELS 3 Zrotation Yrotation Xrotation
				JOINT LeftFoot
				{
					OFFSET 2.46780 -6.78022 0.00000
					CHANNELS 3 Zrotation Yrotation Xrotation
					JOINT LeftToeBase
					{
						OFFSET 0.07897 -0.21698 1.59652
						CHANNELS 3 Zrotation Yrotation Xrotation
						End Site
						{
							OFFSET 0.00000 -0.00000 0.82310
						}
					}
				}
			}
		}
	}
	JOINT RHipJoint
	{
		OFFSET 0 0 0
		CHANNELS 3 Zrotation Yrotation Xrotation
		JOINT RightUpLeg
		{
			OFFSET -1.93650 -1.59681 0.65681
			CHANNELS 3 Zrotation Yrotation Xrotation
			JOINT RightLeg
			{
				OFFSET -2.29410 -6.30299 0.00000
				CHANNELS 3 Zrotation Yrotation Xrotation
				JOINT RightFoot
				{
					OFFSET -2.48738 -6.83403 0.00000
					CHANNELS 3 Zrotation Yrotation Xrotation
					JOINT RightToeBase
					{
						OFFSET -0.08699 -0.23899 1.89395
						CHANNELS 3 Zrotation Yrotation Xrotation
						End Site
						{
							OFFSET -0.00000 -0.00000 0.96904
						}
					}
				}
			}
		}
	}
	JOINT LowerBack
	{
		OFFSET 0 0 0
		CHANNELS 3 Zrotation Yrotation Xrotation
		JOINT Spine
		{
			OFFSET 0.03629 1.99740 -0.07548
			CHANNELS 3 Zrotation Yrotation Xrotation
			JOINT Spine1
			{
				OFFSET 0.03970 1.94298 0.17218
				CHANNELS 3 Zrotation Yrotation Xrotation
				JOINT Neck
				{
					OFFSET 0 0 0
					CHANNELS 3 Zrotation Yrotation Xrotation
					JOINT Neck1
					{
						OFFSET -0.05054 1.79469 0.04241
						CHANNELS 3 Zrotation Yrotation Xrotation
						JOINT Head
						{
							OFFSET 0.05195 1.78475 -0.22133
							CHANNELS 3 Zrotation Yrotation Xrotation
							End Site
							{
								OFFSET 0.02420 1.80711 -0.07950
							}
						}
					}
				}
				JOINT LeftShoulder
				{
					OFFSET 0 0 0
					CHANNELS 3 Zrotation Yrotation Xrotation
					JOINT LeftArm
					{
						OFFSET 2.92134 1.19850 0.36056
						CHANNELS 3 Zrotation Yrotation Xrotation
						JOINT LeftForeArm
						{
							OFFSET 4.84137 -0.00000 0.00000
							CHANNELS 3 Zrotation Yrotation Xrotation
							JOINT LeftHand
							{
								OFFSET 3.24520 -0.00000 -0.00000
								CHANNELS 3 Zrotation Yrotation Xrotation
								JOINT LeftFingerBase
								{
									OFFSET 0 0 0
									CHANNELS 3 Zrotation Yrotation Xrotation
									JOINT LeftHandIndex1
									{
										OFFSET 0.52122 -0.00000 0.00000
										CHANNELS 3 Zrotation Yrotation Xrotation
										End Site
										{
											OFFSET 0.42022 -0.00000 0.00000
										}
									}
								}
								JOINT LThumb
								{
									OFFSET 0 0 0
									CHANNELS 3 Zrotation Yrotation Xrotation
									End Site
									{
										OFFSET 0.42664 -0.00000 0.42664
									}
								}
							}
						}
					}
				}
				JOINT RightShoulder
				{
					OFFSET 0 0 0
					CHANNELS 3 Zrotation Yrotation Xrotation
					JOINT RightArm
					{
						OFFSET -2.84327 1.20795 0.50191
						CHANNELS 3 Zrotation Yrotation Xrotation
						JOINT RightForeArm
						{
							OFFSET -4.72284 -0.00000 0.00000
							CHANNELS 3 Zrotation Yrotation Xrotation
							JOINT RightHand
							{
								OFFSET -3.23459 -0.00000 0.00000
								CHANNELS 3 Zrotation Yrotation Xrotation
								JOINT RightFingerBase
								{
									OFFSET 0 0 0
									CHANNELS 3 Zrotation Yrotation Xrotation
									JOINT RightHandIndex1
									{
										OFFSET -0.30742 -0.00000 0.00000
										CHANNELS 3 Zrotation Yrotation Xrotation
										End Site
										{
											OFFSET -0.24785 -0.00000 0.00000
										}
									}
								}
								JOINT RThumb
								{
									OFFSET 0 0 0
									CHANNELS 3 Zrotation Yrotation Xrotation
									End Site
									{
										OFFSET -0.25163 -0.00000 0.25163
									}
								}
							}
						}
					}
				}
			}
		}
	}
}
MOTION
Frames: 11
Frame Time: .0083333
9.4168 16.0492 -23.2668 0 0 0 0 0 0 -21 0 0 0 0 0 0 0 0 0 0 0 0 0 0 21 0 0 0 0 0 0 0 0 0 0 0 0 0 0 0 0 0 0 0 0 0 0 -16 0 0 21 0 0 11 0 0 0 -8 0 0 0 0 0 0 0 0 0 0 0 0 0 0 0 0 0 0 0 0 8 0 0 0 0 0 0 0 0 0 0 0 0 0 0 0 0 0
9.4168 16.0492 -23.2668 -0.7746 10.1703 8.5277 0.0000 0.0000 0.0000 -18.2212 -10.3261 -34.2193 2.4834 9.8077 28.3563 0.0781 7.1475 -11.8239 0.4615 -4.3576 -12.0851 0.0000 0.0000 0.0000 25.0468 13.8860 -20.0163 -2.2646 -9.3967 27.0443 2.3799 -28.8208 -24.7686 -1.3205 -7.2779 20.5413 2.6694 -1.5600 7.3908 1.4034 -1.9440 6.9712 0.0462 -0.8863 3.0418 -7.9080 -1.6353 -8.7878 9.9914 -1.4397 -3.2025 4.2568 -0.5195 0.6260 -0.0000 -0.0000 0.0000 -84.8417 -22.4695 51.1810 16.6895 -26.4467 -3.9481 -0.0000 -0.0000 25.3455 -0.5614 40.9181 -0.3677 -7.1250 0.0000 -0.0000 -46.8580 64.8640 -24.9838 -0.0000 -0.0000 0.0000 80.5477 30.7552 65.2973 -11.7146 19.3753 -2.0066 0.0000 -0.0000 -17.0425 -22.9851 20.8633 -8.5903 7.1250 -0.0000 -0.0000 3.5551 -7.5261 3.0649
9.4199 16.0608 -23.1988 -0.6456 9.8961 8.6378 0.0000 0.0000 0.0000 -17.8400 -11.5177 -33.2250 2.1031 9.0775 26.0381 0.0072 8.5322 -12.2990 0.4598 -4.3498 -12.0630 0.0000 0.0000 0.0000 24.9903 13.7842 -19.7937 -2.2395 -9.3481 26.8905 2.3557 -28.6741 -24.6025 -1.2859 -7.1858 20.2669 2.4073 -1.4933 7.1509 1.3559 -1.8751 6.8751 0.1348 -0.8622 3.0800 -7.8587 -1.5846 -8.5850 9.7959 -1.3884 -3.2154 4.1907 -0.5019 0.5818 -0.0000 0.0000 0.0000 -85.0344 -22.3946 51.1727 16.8479 -26.6568 -4.0189 -0.0000 -0.0000 26.0979 -1.7463 41.1532 -1.1494 -7.1250 0.0000 -0.0000 -48.3223 64.6858 -25.7431 -0.0000 0.0000 0.0000 80.5008 30.6225 65.0534 -11.5920 19.1900 -1.9661 0.0000 -0.0000 -17.0057 -23.3581 21.4252 -8.9649 7.1250 -0.0000 -0.0000 3.3728 -6.8698 2.9504
9.4238 16.0728 -23.1298 -0.5055 9.6683 8.8037 0.0000 0.0000 0.0000 -17.3335 -12.9269 -32.3991 1.8018 8.4404 24.0599 -0.0241 9.6593 -13.3444 0.1992 -2.8737 -7.9273 0.0000 0.0000 0.0000 24.9079 13.7748 -19.4630 -2.1765 -9.2245 26.5000 2.4233 -28.7837 -24.1778 -1.2133 -6.9874 19.6782 2.1685 -1.4445 6.8055 1.2819 -1.8317 6.8234 0.1816 -0.8479 3.2214 -7.8653 -1.6105 -8.6063 9.7604 -1.4260 -3.1408 4.1792 -0.5202 0.6099 -0.0000 -0.0000 0.0000 -85.1776 -22.5336 51.2086 16.9438 -26.7837 -4.0620 -0.0000 -0.0000 26.9906 -3.0724 41.0292 -2.0179 -7.1250 0.0000 -0.0000 -49.3477 64.2275 -25.9099 -0.0000 -0.0000 0.0000 80.2047 30.4137 65.2173 -11.6384 19.2601 -1.9814 0.0000 -0.0000 -17.7157 -23.8719 22.9295 -9.7826 7.1250 -0.0000 -0.0000 3.2087 -5.1878 2.9101
9.4294 16.0809 -23.0576 -0.5242 9.4820 8.9274 0.0000 0.0000 0.0000 -16.5281 -14.6731 -31.4005 1.5160 7.7753 22.0335 -0.1460 11.5387 -14.1602 0.0919 -1.9546 -5.3803 0.0000 0.0000 0.0000 25.0061 13.8461 -19.0494 -2.1141 -9.0998 26.1080 2.4891 -28.9728 -24.0070 -1.1210 -6.7255 18.9048 2.1520 -1.4197 6.5021 1.2008 -1.8084 6.7840 0.0989 -0.8345 3.3464 -7.8618 -1.6313 -8.8791 9.7718 -1.4496 -2.9357 4.1801 -0.5236 0.7160 -0.0000 -0.0000 0.0000 -85.2226 -22.6297 51.5936 17.0065 -26.8663 -4.0903 -0.0000 -0.0000 26.9082 -2.9286 40.7303 -1.9119 -7.1250 0.0000 -0.0000 -48.7620 64.0678 -25.3546 -0.0000 -0.0000 0.0000 79.9499 30.3914 65.5711 -11.7536 19.4341 -2.0196 0.0000 -0.0000 -18.5814 -23.8029 23.1954 -9.8562 7.1250 -0.0000 -0.0000 3.2812 -4.9192 2.9928
9.4360 16.0871 -22.9817 -0.6245 9.2982 9.0014 0.0000 0.0000 0.0000 -15.4939 -16.7011 -30.3659 1.2869 7.1883 20.2746 -0.3314 13.6768 -14.8116 0.0530 -1.4858 -4.0865 0.0000 0.0000 0.0000 25.2257 13.6282 -18.5928 -2.0314 -8.9313 25.5805 2.4464 -28.7983 -23.9584 -1.1053 -6.6798 18.7701 2.2128 -1.4438 6.2354 1.1291 -1.8458 6.7302 -0.0138 -0.8488 3.4335 -7.8946 -1.5696 -9.1485 9.8284 -1.3587 -2.7374 4.2052 -0.4689 0.8103 -0.0000 0.0000 0.0000 -85.2190 -22.6205 51.9415 17.0782 -26.9607 -4.1227 -0.0000 -0.0000 26.5185 -2.8130 40.3112 -1.8207 -7.1250 0.0000 -0.0000 -48.0306 63.8164 -24.6128 -0.0000 0.0000 0.0000 80.1110 30.4768 65.2246 -11.7222 19.3867 -2.0091 0.0000 -0.0000 -18.2822 -22.7448 22.2599 -9.0236 7.1250 -0.0000 -0.0000 3.8424 -6.0923 3.4208
9.4422 16.0982 -22.9038 -0.8346 9.0338 8.9104 0.0000 0.0000 0.0000 -14.4032 -18.3832 -29.3780 1.1076 6.6867 18.7906 -0.4773 15.2719 -15.5496 0.0147 -0.7835 -2.1533 0.0000 0.0000 0.0000 25.6065 13.2525 -17.9548 -1.9368 -8.7332 24.9642 2.3892 -28.4892 -23.6683 -1.1136 -6.7040 18.8414 2.3187 -1.4331 5.9911 1.1069 -1.8380 6.7679 -0.1029 -0.8384 3.6057 -8.0440 -1.4929 -9.1954 10.0491 -1.2367 -2.7735 4.3025 -0.4025 0.8004 -0.0000 0.0000 0.0000 -85.2268 -22.6422 52.1290 17.2115 -27.1357 -4.1833 -0.0000 -0.0000 26.4969 -3.0041 40.3958 -1.9479 -7.1250 0.0000 -0.0000 -48.3317 63.8210 -24.8087 -0.0000 0.0000 0.0000 80.1830 30.5138 64.8333 -11.6979 19.3501 -2.0011 0.0000 -0.0000 -17.6055 -22.1342 21.4096 -8.4455 7.1250 -0.0000 -0.0000 4.1460 -7.0877 3.6124
9.4464 16.1136 -22.8286 -1.1528 8.5611 8.6947 0.0000 0.0000 0.0000 -13.3201 -19.5967 -28.4177 0.9571 6.2296 17.4520 -0.6703 16.8583 -15.7995 0.0034 0.3782 1.0391 0.0000 0.0000 0.0000 26.0998 13.2270 -17.1039 -1.8514 -8.5495 24.3959 2.4333 -28.4935 -23.1520 -0.9945 -6.3468 17.7940 2.4634 -1.2652 5.8271 1.1030 -1.6202 6.8777 -0.1987 -0.7210 3.8132 -7.9681 -1.4899 -9.0283 9.9996 -1.2342 -3.0365 4.2756 -0.4088 0.6950 -0.0000 -0.0000 0.0000 -85.2701 -22.7337 52.3377 17.4076 -27.3920 -4.2732 -0.0000 -0.0000 26.6853 -2.7313 40.7929 -1.7852 -7.1250 0.0000 -0.0000 -48.6755 64.1652 -25.4057 -0.0000 -0.0000 0.0000 79.9021 30.5432 64.9522 -11.7473 19.4246 -2.0175 0.0000 -0.0000 -17.8403 -22.5077 21.2613 -8.5454 7.1250 -0.0000 -0.0000 3.8956 -7.1834 3.3859
9.4508 16.1226 -22.7568 -1.3450 8.1012 8.5168 0.0000 0.0000 0.0000 -12.3266 -21.0189 -27.4586 0.8337 5.8247 16.2767 -0.9271 18.7203 -16.0088 0.0219 0.9549 2.6246 0.0000 0.0000 0.0000 26.4346 13.2709 -16.3176 -1.7757 -8.3824 23.8816 2.5122 -28.6256 -22.5933 -0.8718 -5.9531 16.6484 2.4998 -1.1113 5.7898 1.0377 -1.4157 6.8776 -0.2925 -0.6158 3.8358 -7.8049 -1.5314 -8.8753 9.8512 -1.3084 -3.1455 4.2008 -0.4541 0.6420 -0.0000 0.0000 0.0000 -85.2077 -22.5661 52.5774 17.6399 -27.6936 -4.3806 -0.0000 -0.0000 26.7389 -2.6700 40.7619 -1.7440 -7.1250 0.0000 -0.0000 -48.5724 64.1615 -25.3353 -0.0000 0.0000 0.0000 79.9322 30.4935 64.7403 -11.7073 19.3643 -2.0042 0.0000 -0.0000 -18.0965 -23.0929 21.3076 -8.8073 7.1250 -0.0000 -0.0000 3.5291 -7.0385 3.0761
9.4588 16.1261 -22.6810 -1.2714 7.7442 8.4643 0.0000 0.0000 0.0000 -11.6006 -22.6446 -26.5303 0.7286 5.4537 15.2072 -1.1354 20.3904 -17.0417 0.0054 0.4725 1.2982 0.0000 0.0000 0.0000 26.4571 13.1456 -15.7554 -1.7161 -8.2480 23.4698 2.5277 -28.5793 -22.2290 -0.8153 -5.7619 16.0952 2.2441 -1.0894 5.7073 0.9479 -1.3926 6.7262 -0.2433 -0.6158 3.7253 -7.9245 -1.4746 -8.7488 9.9451 -1.2400 -2.9758 4.2514 -0.4197 0.6677 0.0000 -0.0000 0.0000 -85.0971 -22.0187 52.6874 17.8692 -27.9893 -4.4877 -0.0000 -0.0000 26.5850 -2.6087 40.9845 -1.7116 -7.1250 0.0000 -0.0000 -48.8549 64.3282 -25.7005 0.0000 -0.0000 0.0000 80.1186 30.2186 64.6610 -11.6796 19.3225 -1.9950 0.0000 -0.0000 -18.1472 -23.4968 20.7847 -8.7700 7.1250 -0.0000 -0.0000 3.2218 -7.5258 2.7766
9.4698 16.1318 -22.5981 -1.2118 7.3852 8.3998 0.0000 0.0000 0.0000 -10.9698 -24.0558 -25.6018 0.6353 5.0997 14.1932 -1.2214 21.3427 -18.3341 0.0363 1.2303 3.3826 0.0000 0.0000 0.0000 26.4835 13.0516 -15.2106 -1.6798 -8.1645 23.2149 2.4618 -28.3535 -22.3250 -0.8320 -5.8191 16.2604 1.9695 -1.0771 5.4614 0.9046 -1.3899 6.6472 -0.1388 -0.6257 3.7838 -8.0665 -1.3518 -8.6051 10.0105 -1.0812 -2.8210 4.3003 -0.3408 0.6775 0.0000 0.0000 0.0000 -85.1202 -21.6495 52.7279 18.0338 -28.2005 -4.5652 -0.0000 -0.0000 26.3950 -2.2746 41.3936 -1.5045 -7.1250 0.0000 -0.0000 -49.1834 64.6959 -26.3183 0.0000 0.0000 0.0000 80.0087 29.9687 64.8835 -11.7275 19.3947 -2.0109 0.0000 -0.0000 -18.2960 -23.1963 20.6388 -8.5893 7.1250 -0.0000 -0.0000 3.3994 -7.7296 2.9166
